<?xml version="1.0" encoding="utf-8"?>
<!-- Generator: Adobe Illustrator 18.1.1, SVG Export Plug-In . SVG Version: 6.00 Build 0)  -->
<svg version="1.1" xmlns="http://www.w3.org/2000/svg" xmlns:xlink="http://www.w3.org/1999/xlink" x="0px" y="0px"
	 viewBox="0 0 864.4 174.2" style="enable-background:new 0 0 864.4 174.2;" xml:space="preserve">
<style type="text/css">
	.Drop_x0020_Shadow{fill:none;}
	.st0{fill:#EDEDED;stroke:#B2B2B2;stroke-width:0.5;}
	.st1{font-family:'Avenir-Heavy';}
	.st2{font-size:174.5043px;}
	.st3{fill:#E6332A;stroke:#C6C6C6;stroke-width:0.5;stroke-miterlimit:10;}
	.st4{fill:#F6F6F6;stroke:#C6C6C6;stroke-width:0.5;stroke-miterlimit:10;}
	.st5{fill:#878787;stroke:#C6C6C6;stroke-width:0.25;stroke-miterlimit:10;}
	.st6{fill:#FFFFFF;}
	.st7{fill:#E6332A;}
</style>
<g id="Text_Layer">
	<text transform="matrix(1 0 0 1 9.548 147.0258)" class="st0 st1 st2">TomaTic</text>
</g>
<g id="Layer_2">
	<g>
		<circle class="st3" cx="163.9" cy="105.8" r="47.3"/>
		<circle class="st4" cx="163.9" cy="105.8" r="28.3"/>
		<polygon class="st5" points="154.5,92.3 179.4,105.7 154.5,119.1 		"/>
	</g>
	<g>
		<line class="st6" x1="700.8" y1="98.8" x2="741.7" y2="138.8"/>
		<g>
			<path class="st7" d="M692.4,107.3c13.6,13.3,27.2,26.7,40.8,40c11,10.8,28-6.1,17-17c-13.6-13.3-27.2-26.7-40.8-40
				C698.3,79.5,681.3,96.5,692.4,107.3L692.4,107.3z"/>
		</g>
	</g>
	<g>
		<line class="st6" x1="741.7" y1="138.8" x2="822.8" y2="43.4"/>
		<g>
			<path class="st7" d="M750.1,147.3c23.7-27.8,47.3-55.7,71-83.5c3.4-4,6.7-7.9,10.1-11.9c4.2-4.9,4.8-12.1,0-17
				c-4.3-4.3-12.8-5-17,0c-23.7,27.8-47.3,55.7-71,83.5c-3.4,4-6.7,7.9-10.1,11.9c-4.2,4.9-4.8,12.1,0,17
				C737.5,151.6,745.9,152.2,750.1,147.3L750.1,147.3z"/>
		</g>
	</g>
</g>
</svg>
