<?xml version="1.0" encoding="utf-8"?>
<!-- Generator: Adobe Illustrator 18.1.1, SVG Export Plug-In . SVG Version: 6.00 Build 0)  -->
<svg version="1.1" xmlns="http://www.w3.org/2000/svg" xmlns:xlink="http://www.w3.org/1999/xlink" x="0px" y="0px"
	 viewBox="0 0 836 161.6" style="enable-background:new 0 0 836 161.6;" xml:space="preserve">
<style type="text/css">
	.Drop_x0020_Shadow{fill:none;}
	.st0{fill:#EDEDED;stroke:#B2B2B2;stroke-width:0.5;}
	.st1{font-family:'Lato';
		 font-weight: 700;
		 src: url("http://fonts.googleapis.com/css?family=Lato:400,700");}
	.st2{font-size:174.5043px;}
	.st3{fill:#E6332A;stroke:#C6C6C6;stroke-width:0.5;stroke-miterlimit:10;}
	.st4{fill:#F6F6F6;stroke:#C6C6C6;stroke-width:0.5;stroke-miterlimit:10;}
	.st5{fill:#878787;stroke:#C6C6C6;stroke-width:0.25;stroke-miterlimit:10;}
	.st6{fill:#FFFFFF;}
	.st7{fill:#E6332A;}
</style>
<g id="Text_Layer">
	<text transform="matrix(1 0 0 1 17.9142 143.2411)" class="st0 st1 st2">TomaTic</text>
</g>
<g id="Layer_2">
	<g>
		<circle class="st3" cx="153.9" cy="100.4" r="48.9"/>
		<circle class="st4" cx="153.9" cy="100.4" r="29.3"/>
		<polygon class="st5" points="144.2,86.4 169.9,100.3 144.2,114.2 		"/>
	</g>
	<g>
		<line class="st6" x1="681.2" y1="84" x2="722" y2="124"/>
		<g>
			<path class="st7" d="M672.7,92.5c13.6,13.3,27.2,26.7,40.8,40c11,10.8,28-6.1,17-17c-13.6-13.3-27.2-26.7-40.8-40
				C678.7,64.7,661.7,81.7,672.7,92.5L672.7,92.5z"/>
		</g>
	</g>
	<g>
		<line class="st6" x1="722" y1="124" x2="803.1" y2="28.6"/>
		<g>
			<path class="st7" d="M730.5,132.5c23.7-27.8,47.3-55.7,71-83.5c3.4-4,6.7-7.9,10.1-11.9c4.2-4.9,4.8-12.1,0-17
				c-4.3-4.3-12.8-5-17,0c-23.7,27.8-47.3,55.7-71,83.5c-3.4,4-6.7,7.9-10.1,11.9c-4.2,4.9-4.8,12.1,0,17
				C717.8,136.8,726.3,137.5,730.5,132.5L730.5,132.5z"/>
		</g>
	</g>
</g>
</svg>
